REM DIRINDEX 1\2\4,1\2\5,1\3\6,1\3\7,1\3\8
REM DIRNAME folder01,folder02,folder03,folder04,folder05,folder06,folder07,folder08
TITLE ""
FILE "LEVEL3-005-midashigo.mp3" MP3
  TRACK 01 AUDIO
    TITLE "0:"
    INDEX 01 00:00:00
  TRACK 02 AUDIO
    TITLE "6:cjc092_1931"
    INDEX 01 00:00:01
  TRACK 03 AUDIO
    TITLE "0:"
    INDEX 01 00:02:65
  TRACK 04 AUDIO
    TITLE "7:cjc092_1932"
    INDEX 01 00:03:49
  TRACK 05 AUDIO
    TITLE "8:cjc092_1933"
    INDEX 01 00:04:74
  TRACK 06 AUDIO
    TITLE "0:"
    INDEX 01 00:10:31
  TRACK 07 AUDIO
    TITLE "7:cjc092_1934"
    INDEX 01 00:10:66
  TRACK 08 AUDIO
    TITLE "8:cjc092_1935"
    INDEX 01 00:12:20
  TRACK 09 AUDIO
    TITLE "0:"
    INDEX 01 00:15:54
  TRACK 10 AUDIO
    TITLE "7:cjc092_1936"
    INDEX 01 00:16:14
  TRACK 11 AUDIO
    TITLE "8:cjc092_1937"
    INDEX 01 00:17:45
  TRACK 12 AUDIO
    TITLE "0:"
    INDEX 01 00:21:19
  TRACK 13 AUDIO
    TITLE "7:cjc092_1938"
    INDEX 01 00:21:57
  TRACK 14 AUDIO
    TITLE "8:cjc092_1939"
    INDEX 01 00:23:08
  TRACK 15 AUDIO
    TITLE "0:"
    INDEX 01 00:25:74
  TRACK 16 AUDIO
    TITLE "7:cjc092_1940"
    INDEX 01 00:26:28
  TRACK 17 AUDIO
    TITLE "8:cjc092_1941"
    INDEX 01 00:27:63
  TRACK 18 AUDIO
    TITLE "0:"
    INDEX 01 00:31:12
  TRACK 19 AUDIO
    TITLE "7:cjc092_1942"
    INDEX 01 00:31:45
  TRACK 20 AUDIO
    TITLE "8:cjc092_1943"
    INDEX 01 00:33:19
  TRACK 21 AUDIO
    TITLE "0:"
    INDEX 01 00:35:53
  TRACK 22 AUDIO
    TITLE "7:cjc092_1944"
    INDEX 01 00:36:15
  TRACK 23 AUDIO
    TITLE "8:cjc092_1945"
    INDEX 01 00:37:40
  TRACK 24 AUDIO
    TITLE "0:"
    INDEX 01 00:40:72
  TRACK 25 AUDIO
    TITLE "7:cjc092_1946"
    INDEX 01 00:41:22
  TRACK 26 AUDIO
    TITLE "8:cjc092_1947"
    INDEX 01 00:42:55
  TRACK 27 AUDIO
    TITLE "0:"
    INDEX 01 00:44:36
  TRACK 28 AUDIO
    TITLE "7:cjc092_1948"
    INDEX 01 00:44:71
  TRACK 29 AUDIO
    TITLE "8:cjc092_1949"
    INDEX 01 00:46:25
  TRACK 30 AUDIO
    TITLE "0:"
    INDEX 01 00:47:46
  TRACK 31 AUDIO
    TITLE "7:cjc092_1950"
    INDEX 01 00:48:06
  TRACK 32 AUDIO
    TITLE "8:cjc092_1951"
    INDEX 01 00:49:37
  TRACK 33 AUDIO
    TITLE "0:"
    INDEX 01 00:52:08
  TRACK 34 AUDIO
    TITLE "7:cjc092_1952"
    INDEX 01 00:52:45
  TRACK 35 AUDIO
    TITLE "8:cjc092_1953"
    INDEX 01 00:54:13
  TRACK 36 AUDIO
    TITLE "0:"
    INDEX 01 00:56:12
  TRACK 37 AUDIO
    TITLE "7:cjc092_1954"
    INDEX 01 00:56:49
  TRACK 38 AUDIO
    TITLE "8:cjc092_1955"
    INDEX 01 00:58:03
  TRACK 39 AUDIO
    TITLE "0:"
    INDEX 01 00:59:43
  TRACK 40 AUDIO
    TITLE "7:cjc092_1956"
    INDEX 01 01:00:06
  TRACK 41 AUDIO
    TITLE "8:cjc092_1957"
    INDEX 01 01:01:25
  TRACK 42 AUDIO
    TITLE "0:"
    INDEX 01 01:05:56
  TRACK 43 AUDIO
    TITLE "7:cjc092_1958"
    INDEX 01 01:06:16
  TRACK 44 AUDIO
    TITLE "8:cjc092_1959"
    INDEX 01 01:07:39
  TRACK 45 AUDIO
    TITLE "0:"
    INDEX 01 01:10:57
  TRACK 46 AUDIO
    TITLE "7:cjc092_1960"
    INDEX 01 01:11:19
  TRACK 47 AUDIO
    TITLE "8:cjc092_1961"
    INDEX 01 01:12:42
  TRACK 48 AUDIO
    TITLE "0:"
    INDEX 01 01:15:52
  TRACK 49 AUDIO
    TITLE "7:cjc092_1962"
    INDEX 01 01:16:12
  TRACK 50 AUDIO
    TITLE "8:cjc092_1963"
    INDEX 01 01:17:30
  TRACK 51 AUDIO
    TITLE "0:"
    INDEX 01 01:18:41
  TRACK 52 AUDIO
    TITLE "7:cjc092_1964"
    INDEX 01 01:19:01
  TRACK 53 AUDIO
    TITLE "8:cjc092_1965"
    INDEX 01 01:20:16
  TRACK 54 AUDIO
    TITLE "0:"
    INDEX 01 01:23:32
  TRACK 55 AUDIO
    TITLE "7:cjc092_1966"
    INDEX 01 01:23:69
  TRACK 56 AUDIO
    TITLE "8:cjc092_1967"
    INDEX 01 01:25:02
  TRACK 57 AUDIO
    TITLE "0:"
    INDEX 01 01:28:35
  TRACK 58 AUDIO
    TITLE "7:cjc092_1968"
    INDEX 01 01:28:65
  TRACK 59 AUDIO
    TITLE "8:cjc092_1969"
    INDEX 01 01:30:11
  TRACK 60 AUDIO
    TITLE "0:"
    INDEX 01 01:33:66
  TRACK 61 AUDIO
    TITLE "7:cjc092_1970"
    INDEX 01 01:34:26
  TRACK 62 AUDIO
    TITLE "8:cjc092_1971"
    INDEX 01 01:35:63
  TRACK 63 AUDIO
    TITLE "0:"
    INDEX 01 01:37:26
  TRACK 64 AUDIO
    TITLE "7:cjc092_1972"
    INDEX 01 01:37:62
  TRACK 65 AUDIO
    TITLE "8:cjc092_1973"
    INDEX 01 01:39:39
  TRACK 66 AUDIO
    TITLE "0:"
    INDEX 01 01:40:58
